<?xml version="1.0" encoding="UTF-8" standalone="no"?>
<!DOCTYPE svg PUBLIC "-//W3C//DTD SVG 1.1//EN" "http://www.w3.org/Graphics/SVG/1.1/DTD/svg11.dtd">
<svg width="100%" height="100%" viewBox="0 0 2160 781" version="1.1" xmlns="http://www.w3.org/2000/svg" xmlns:xlink="http://www.w3.org/1999/xlink" xml:space="preserve" xmlns:serif="http://www.serif.com/" style="fill-rule:evenodd;clip-rule:evenodd;stroke-linejoin:round;stroke-miterlimit:2;">
    <g id="Capa-1" serif:id="Capa 1" transform="matrix(3.356166,0,0,3.356166,-732.329703,-3176.59831)">
        <g transform="matrix(1,0,0,1,305.9076,1092.1105)">
            <path d="M0,-58.523C-16.136,-58.523 -29.262,-45.396 -29.262,-29.261C-29.262,-13.127 -16.136,-0 0,-0C16.136,-0 29.262,-13.127 29.262,-29.261C29.262,-45.396 16.136,-58.523 0,-58.523M0,19.508C-26.892,19.508 -48.769,-2.37 -48.769,-29.261C-48.769,-56.153 -26.892,-78.031 0,-78.031C26.892,-78.031 48.769,-56.153 48.769,-29.261C48.769,-2.37 26.892,19.508 0,19.508" style="fill:white;fill-rule:nonzero;"/>
        </g>
        <g transform="matrix(1,0,0,1,774.0925,1092.1105)">
            <path d="M0,-58.523C-16.136,-58.523 -29.262,-45.396 -29.262,-29.261C-29.262,-13.127 -16.136,-0 0,-0C16.136,-0 29.262,-13.127 29.262,-29.261C29.262,-45.396 16.136,-58.523 0,-58.523M0,19.508C-26.892,19.508 -48.769,-2.37 -48.769,-29.261C-48.769,-56.153 -26.892,-78.031 0,-78.031C26.892,-78.031 48.769,-56.153 48.769,-29.261C48.769,-2.37 26.892,19.508 0,19.508" style="fill:white;fill-rule:nonzero;"/>
        </g>
        <g transform="matrix(1,0,0,1,461.9692,1014.0793)">
            <path d="M0,97.539L-9.754,97.539C-12.825,97.539 -15.715,96.094 -17.557,93.637L-68.277,26.011L-68.277,97.539L-87.785,97.539L-87.785,9.754C-87.785,4.368 -83.418,0 -78.031,0L-68.277,0C-65.206,0 -62.316,1.445 -60.474,3.902L-9.754,71.528L-9.754,0L9.754,0L9.754,87.785C9.754,93.172 5.387,97.539 0,97.539" style="fill:white;fill-rule:nonzero;"/>
        </g>
        <g transform="matrix(1,0,0,1,697.2352,1014.0793)">
            <path d="M0,97.539L-9.754,97.539C-12.825,97.539 -15.715,96.094 -17.557,93.637L-68.277,26.011L-68.277,97.539L-87.785,97.539L-87.785,9.754C-87.785,4.368 -83.418,0 -78.031,0L-68.277,0C-65.206,0 -62.316,1.445 -60.474,3.902L-9.754,71.528L-9.754,0L9.754,0L9.754,87.785C9.754,93.172 5.387,97.539 0,97.539" style="fill:white;fill-rule:nonzero;"/>
        </g>
        <g transform="matrix(1,0,0,1,506.8599,1062.2382)">
            <path d="M0,68.888L0,78.642L-16.568,78.642L-16.568,68.888C-16.568,52.701 -9.282,36.685 -0.111,23.511C12.594,5.261 28.479,-7.453 28.479,-7.453C31.351,-9.754 35.137,-9.701 37.962,-7.32C37.962,-7.32 53.767,5.993 66.408,24.284C75.592,37.573 82.847,53.476 82.847,68.888L82.847,78.642L66.279,78.642L66.279,68.888C66.279,57.605 60.281,46.325 53.556,36.597C46.401,26.243 38.104,17.683 33.034,12.842C27.988,17.488 19.785,25.706 12.705,35.876C5.969,45.553 0,56.998 0,68.888" style="fill:rgb(12,188,229);"/>
        </g>
        <g transform="matrix(1,0,0,1,573.1393,1063.4603)">
            <path d="M0,-68.888L0,-78.642L16.568,-78.642L16.568,-68.888C16.568,-52.701 9.282,-36.685 0.111,-23.511C-12.594,-5.261 -28.479,7.453 -28.479,7.453C-31.351,9.754 -35.137,9.701 -37.962,7.32C-37.962,7.32 -38.868,6.557 -40.419,5.145C-45.348,0.661 -56.793,-10.372 -66.408,-24.284C-75.592,-37.573 -82.847,-53.476 -82.847,-68.888L-82.847,-78.642L-66.279,-78.642L-66.279,-68.888C-66.279,-57.605 -60.279,-46.325 -53.557,-36.596C-46.401,-26.243 -38.104,-17.683 -33.034,-12.842C-27.988,-17.488 -19.785,-25.706 -12.705,-35.876C-5.967,-45.553 0,-56.998 0,-68.888" style="fill:rgb(12,188,229);"/>
        </g>
        <g transform="matrix(0,-1,-1,0,539.3108,1140.8216)">
            <path d="M21.4,37.006L37.006,37.006L37.006,-10.216C32.95,-14.791 28.082,-18.523 21.4,-21.4L21.4,37.006Z" style="fill:rgb(12,188,229);"/>
        </g>
        <g transform="matrix(0,1,1,0,556.5013,1043.0759)">
            <path d="M-36.799,21.193L-21.193,21.193L-21.193,-26.029C-25.249,-30.604 -30.286,-34.037 -36.799,-36.799L-36.799,21.193Z" style="fill:rgb(12,188,229);"/>
        </g>
    </g>
</svg>
